<svg aria-roledescription="er" role="graphics-document document" viewBox="0 0 449.67364501953125 408" style="max-width: 449.67364501953125px;" xmlns="http://www.w3.org/2000/svg" width="100%" id="mermaidSvgChart"><style>#mermaidSvgChart{font-family:"trebuchet ms",verdana,arial,sans-serif;font-size:16px;fill:#ccc;}#mermaidSvgChart .error-icon{fill:#a44141;}#mermaidSvgChart .error-text{fill:#ddd;stroke:#ddd;}#mermaidSvgChart .edge-thickness-normal{stroke-width:2px;}#mermaidSvgChart .edge-thickness-thick{stroke-width:3.5px;}#mermaidSvgChart .edge-pattern-solid{stroke-dasharray:0;}#mermaidSvgChart .edge-pattern-dashed{stroke-dasharray:3;}#mermaidSvgChart .edge-pattern-dotted{stroke-dasharray:2;}#mermaidSvgChart .marker{fill:lightgrey;stroke:lightgrey;}#mermaidSvgChart .marker.cross{stroke:lightgrey;}#mermaidSvgChart svg{font-family:"trebuchet ms",verdana,arial,sans-serif;font-size:16px;}#mermaidSvgChart .entityBox{fill:#1f2020;stroke:#81B1DB;}#mermaidSvgChart .attributeBoxOdd{fill:hsl(0, 0%, 32%);stroke:#81B1DB;}#mermaidSvgChart .attributeBoxEven{fill:hsl(0, 0%, 22%);stroke:#81B1DB;}#mermaidSvgChart .relationshipLabelBox{fill:hsl(20, 1.5873015873%, 12.3529411765%);opacity:0.7;background-color:hsl(20, 1.5873015873%, 12.3529411765%);}#mermaidSvgChart .relationshipLabelBox rect{opacity:0.5;}#mermaidSvgChart .relationshipLine{stroke:lightgrey;}#mermaidSvgChart .entityTitleText{text-anchor:middle;font-size:18px;fill:#ccc;}#mermaidSvgChart :root{--mermaid-font-family:"trebuchet ms",verdana,arial,sans-serif;}</style><g></g><defs><marker orient="auto" markerHeight="18" markerWidth="18" refY="9" refX="0" id="ONLY_ONE_START"><path d="M9,0 L9,18 M15,0 L15,18" fill="none" stroke="gray"></path></marker></defs><defs><marker orient="auto" markerHeight="18" markerWidth="18" refY="9" refX="18" id="ONLY_ONE_END"><path d="M3,0 L3,18 M9,0 L9,18" fill="none" stroke="gray"></path></marker></defs><defs><marker orient="auto" markerHeight="18" markerWidth="30" refY="9" refX="0" id="ZERO_OR_ONE_START"><circle r="6" cy="9" cx="21" fill="white" stroke="gray"></circle><path d="M9,0 L9,18" fill="none" stroke="gray"></path></marker></defs><defs><marker orient="auto" markerHeight="18" markerWidth="30" refY="9" refX="30" id="ZERO_OR_ONE_END"><circle r="6" cy="9" cx="9" fill="white" stroke="gray"></circle><path d="M21,0 L21,18" fill="none" stroke="gray"></path></marker></defs><defs><marker orient="auto" markerHeight="36" markerWidth="45" refY="18" refX="18" id="ONE_OR_MORE_START"><path d="M0,18 Q 18,0 36,18 Q 18,36 0,18 M42,9 L42,27" fill="none" stroke="gray"></path></marker></defs><defs><marker orient="auto" markerHeight="36" markerWidth="45" refY="18" refX="27" id="ONE_OR_MORE_END"><path d="M3,9 L3,27 M9,18 Q27,0 45,18 Q27,36 9,18" fill="none" stroke="gray"></path></marker></defs><defs><marker orient="auto" markerHeight="36" markerWidth="57" refY="18" refX="18" id="ZERO_OR_MORE_START"><circle r="6" cy="18" cx="48" fill="white" stroke="gray"></circle><path d="M0,18 Q18,0 36,18 Q18,36 0,18" fill="none" stroke="gray"></path></marker></defs><defs><marker orient="auto" markerHeight="36" markerWidth="57" refY="18" refX="39" id="ZERO_OR_MORE_END"><circle r="6" cy="18" cx="9" fill="white" stroke="gray"></circle><path d="M21,18 Q39,0 57,18 Q39,36 21,18" fill="none" stroke="gray"></path></marker></defs><path style="stroke: gray; fill: none;" marker-start="url(#ZERO_OR_ONE_START)" marker-end="url(#ONE_OR_MORE_END)" d="M156.207,196.804L148.386,205.337C140.564,213.869,124.921,230.935,117.099,247.801C109.277,264.667,109.277,281.333,109.277,289.667L109.277,298" class="er relationshipLine"></path><path style="stroke: gray; fill: none;" marker-start="url(#ZERO_OR_ONE_START)" marker-end="url(#ONE_OR_MORE_END)" d="M317.184,196.804L325.006,205.337C332.827,213.869,348.471,230.935,356.292,249.634C364.114,268.333,364.114,288.667,364.114,298.833L364.114,309" class="er relationshipLine"></path><g transform="translate(298.5546875,309 )" id="entity-dbojobs-bb62d77f-0b49-5910-bf11-d9ef765ed760"><rect height="68" width="131.11894607543945" y="0" x="0" class="er entityBox"></rect><text style="dominant-baseline: middle; text-anchor: middle; font-size: 12px;" transform="translate(65.55947303771973,12)" y="0" x="0" id="text-entity-dbojobs-bb62d77f-0b49-5910-bf11-d9ef765ed760" class="er entityLabel">dbo.jobs</text><rect height="22" width="62.15625" y="24" x="0" class="er attributeBoxOdd"></rect><text style="dominant-baseline: middle; font-size: 10.2px;" transform="translate(5,35)" y="0" x="0" id="text-entity-dbojobs-bb62d77f-0b49-5910-bf11-d9ef765ed760-attr-1-type" class="er entityLabel">varchar(10)</text><rect height="22" width="45.35332107543945" y="24" x="62.15625" class="er attributeBoxOdd"></rect><text style="dominant-baseline: middle; font-size: 10.2px;" transform="translate(67.15625,35)" y="0" x="0" id="text-entity-dbojobs-bb62d77f-0b49-5910-bf11-d9ef765ed760-attr-1-name" class="er entityLabel">job_id</text><rect height="22" width="23.609375" y="24" x="107.50957107543945" class="er attributeBoxOdd"></rect><text style="dominant-baseline: middle; font-size: 10.2px;" transform="translate(112.50957107543945,35)" y="0" x="0" id="text-entity-dbojobs-bb62d77f-0b49-5910-bf11-d9ef765ed760-attr-1-comment" class="er entityLabel">PK</text><rect height="22" width="62.15625" y="46" x="0" class="er attributeBoxEven"></rect><text style="dominant-baseline: middle; font-size: 10.2px;" transform="translate(5,57)" y="0" x="0" id="text-entity-dbojobs-bb62d77f-0b49-5910-bf11-d9ef765ed760-attr-2-type" class="er entityLabel">varchar(20)</text><rect height="22" width="45.35332107543945" y="46" x="62.15625" class="er attributeBoxEven"></rect><text style="dominant-baseline: middle; font-size: 10.2px;" transform="translate(67.15625,57)" y="0" x="0" id="text-entity-dbojobs-bb62d77f-0b49-5910-bf11-d9ef765ed760-attr-2-name" class="er entityLabel">job_title</text><rect height="22" width="23.609375" y="46" x="107.50957107543945" class="er attributeBoxEven"></rect><text style="dominant-baseline: middle; font-size: 10.2px;" transform="translate(112.50957107543945,57)" y="0" x="0" id="text-entity-dbojobs-bb62d77f-0b49-5910-bf11-d9ef765ed760-attr-2-comment" class="er entityLabel"></text></g><g transform="translate(20,298 )" id="entity-dbodepartments-0b31e2dc-f669-5285-ab92-fd13625782c4"><rect height="90" width="178.5546875" y="0" x="0" class="er entityBox"></rect><text style="dominant-baseline: middle; text-anchor: middle; font-size: 12px;" transform="translate(89.27734375,12)" y="0" x="0" id="text-entity-dbodepartments-0b31e2dc-f669-5285-ab92-fd13625782c4" class="er entityLabel">dbo.departments</text><rect height="22" width="62.15625" y="24" x="0" class="er attributeBoxOdd"></rect><text style="dominant-baseline: middle; font-size: 10.2px;" transform="translate(5,35)" y="0" x="0" id="text-entity-dbodepartments-0b31e2dc-f669-5285-ab92-fd13625782c4-attr-1-type" class="er entityLabel">varchar(10)</text><rect height="22" width="92.7890625" y="24" x="62.15625" class="er attributeBoxOdd"></rect><text style="dominant-baseline: middle; font-size: 10.2px;" transform="translate(67.15625,35)" y="0" x="0" id="text-entity-dbodepartments-0b31e2dc-f669-5285-ab92-fd13625782c4-attr-1-name" class="er entityLabel">department_id</text><rect height="22" width="23.609375" y="24" x="154.9453125" class="er attributeBoxOdd"></rect><text style="dominant-baseline: middle; font-size: 10.2px;" transform="translate(159.9453125,35)" y="0" x="0" id="text-entity-dbodepartments-0b31e2dc-f669-5285-ab92-fd13625782c4-attr-1-comment" class="er entityLabel">PK</text><rect height="22" width="62.15625" y="46" x="0" class="er attributeBoxEven"></rect><text style="dominant-baseline: middle; font-size: 10.2px;" transform="translate(5,57)" y="0" x="0" id="text-entity-dbodepartments-0b31e2dc-f669-5285-ab92-fd13625782c4-attr-2-type" class="er entityLabel">varchar(20)</text><rect height="22" width="92.7890625" y="46" x="62.15625" class="er attributeBoxEven"></rect><text style="dominant-baseline: middle; font-size: 10.2px;" transform="translate(67.15625,57)" y="0" x="0" id="text-entity-dbodepartments-0b31e2dc-f669-5285-ab92-fd13625782c4-attr-2-name" class="er entityLabel">department_name</text><rect height="22" width="23.609375" y="46" x="154.9453125" class="er attributeBoxEven"></rect><text style="dominant-baseline: middle; font-size: 10.2px;" transform="translate(159.9453125,57)" y="0" x="0" id="text-entity-dbodepartments-0b31e2dc-f669-5285-ab92-fd13625782c4-attr-2-comment" class="er entityLabel"></text><rect height="22" width="62.15625" y="68" x="0" class="er attributeBoxOdd"></rect><text style="dominant-baseline: middle; font-size: 10.2px;" transform="translate(5,79)" y="0" x="0" id="text-entity-dbodepartments-0b31e2dc-f669-5285-ab92-fd13625782c4-attr-3-type" class="er entityLabel">varchar(20)</text><rect height="22" width="92.7890625" y="68" x="62.15625" class="er attributeBoxOdd"></rect><text style="dominant-baseline: middle; font-size: 10.2px;" transform="translate(67.15625,79)" y="0" x="0" id="text-entity-dbodepartments-0b31e2dc-f669-5285-ab92-fd13625782c4-attr-3-name" class="er entityLabel">location</text><rect height="22" width="23.609375" y="68" x="154.9453125" class="er attributeBoxOdd"></rect><text style="dominant-baseline: middle; font-size: 10.2px;" transform="translate(159.9453125,79)" y="0" x="0" id="text-entity-dbodepartments-0b31e2dc-f669-5285-ab92-fd13625782c4-attr-3-comment" class="er entityLabel"></text></g><g transform="translate(156.20746994018555,20 )" id="entity-dboemployees-2d15a155-3b9d-5054-b31a-ff1cfbe1a56d"><rect height="178" width="160.9765625" y="0" x="0" class="er entityBox"></rect><text style="dominant-baseline: middle; text-anchor: middle; font-size: 12px;" transform="translate(80.48828125,12)" y="0" x="0" id="text-entity-dboemployees-2d15a155-3b9d-5054-b31a-ff1cfbe1a56d" class="er entityLabel">dbo.employees</text><rect height="22" width="62.15625" y="24" x="0" class="er attributeBoxOdd"></rect><text style="dominant-baseline: middle; font-size: 10.2px;" transform="translate(5,35)" y="0" x="0" id="text-entity-dboemployees-2d15a155-3b9d-5054-b31a-ff1cfbe1a56d-attr-1-type" class="er entityLabel">varchar(10)</text><rect height="22" width="75.2109375" y="24" x="62.15625" class="er attributeBoxOdd"></rect><text style="dominant-baseline: middle; font-size: 10.2px;" transform="translate(67.15625,35)" y="0" x="0" id="text-entity-dboemployees-2d15a155-3b9d-5054-b31a-ff1cfbe1a56d-attr-1-name" class="er entityLabel">employee_id</text><rect height="22" width="23.609375" y="24" x="137.3671875" class="er attributeBoxOdd"></rect><text style="dominant-baseline: middle; font-size: 10.2px;" transform="translate(142.3671875,35)" y="0" x="0" id="text-entity-dboemployees-2d15a155-3b9d-5054-b31a-ff1cfbe1a56d-attr-1-comment" class="er entityLabel">PK</text><rect height="22" width="62.15625" y="46" x="0" class="er attributeBoxEven"></rect><text style="dominant-baseline: middle; font-size: 10.2px;" transform="translate(5,57)" y="0" x="0" id="text-entity-dboemployees-2d15a155-3b9d-5054-b31a-ff1cfbe1a56d-attr-2-type" class="er entityLabel">varchar(20)</text><rect height="22" width="75.2109375" y="46" x="62.15625" class="er attributeBoxEven"></rect><text style="dominant-baseline: middle; font-size: 10.2px;" transform="translate(67.15625,57)" y="0" x="0" id="text-entity-dboemployees-2d15a155-3b9d-5054-b31a-ff1cfbe1a56d-attr-2-name" class="er entityLabel">first_name</text><rect height="22" width="23.609375" y="46" x="137.3671875" class="er attributeBoxEven"></rect><text style="dominant-baseline: middle; font-size: 10.2px;" transform="translate(142.3671875,57)" y="0" x="0" id="text-entity-dboemployees-2d15a155-3b9d-5054-b31a-ff1cfbe1a56d-attr-2-comment" class="er entityLabel"></text><rect height="22" width="62.15625" y="68" x="0" class="er attributeBoxOdd"></rect><text style="dominant-baseline: middle; font-size: 10.2px;" transform="translate(5,79)" y="0" x="0" id="text-entity-dboemployees-2d15a155-3b9d-5054-b31a-ff1cfbe1a56d-attr-3-type" class="er entityLabel">varchar(20)</text><rect height="22" width="75.2109375" y="68" x="62.15625" class="er attributeBoxOdd"></rect><text style="dominant-baseline: middle; font-size: 10.2px;" transform="translate(67.15625,79)" y="0" x="0" id="text-entity-dboemployees-2d15a155-3b9d-5054-b31a-ff1cfbe1a56d-attr-3-name" class="er entityLabel">last_name</text><rect height="22" width="23.609375" y="68" x="137.3671875" class="er attributeBoxOdd"></rect><text style="dominant-baseline: middle; font-size: 10.2px;" transform="translate(142.3671875,79)" y="0" x="0" id="text-entity-dboemployees-2d15a155-3b9d-5054-b31a-ff1cfbe1a56d-attr-3-comment" class="er entityLabel"></text><rect height="22" width="62.15625" y="90" x="0" class="er attributeBoxEven"></rect><text style="dominant-baseline: middle; font-size: 10.2px;" transform="translate(5,101)" y="0" x="0" id="text-entity-dboemployees-2d15a155-3b9d-5054-b31a-ff1cfbe1a56d-attr-4-type" class="er entityLabel">varchar(10)</text><rect height="22" width="75.2109375" y="90" x="62.15625" class="er attributeBoxEven"></rect><text style="dominant-baseline: middle; font-size: 10.2px;" transform="translate(67.15625,101)" y="0" x="0" id="text-entity-dboemployees-2d15a155-3b9d-5054-b31a-ff1cfbe1a56d-attr-4-name" class="er entityLabel">department_id</text><rect height="22" width="23.609375" y="90" x="137.3671875" class="er attributeBoxEven"></rect><text style="dominant-baseline: middle; font-size: 10.2px;" transform="translate(142.3671875,101)" y="0" x="0" id="text-entity-dboemployees-2d15a155-3b9d-5054-b31a-ff1cfbe1a56d-attr-4-comment" class="er entityLabel">FK</text><rect height="22" width="62.15625" y="112" x="0" class="er attributeBoxOdd"></rect><text style="dominant-baseline: middle; font-size: 10.2px;" transform="translate(5,123)" y="0" x="0" id="text-entity-dboemployees-2d15a155-3b9d-5054-b31a-ff1cfbe1a56d-attr-5-type" class="er entityLabel">varchar(10)</text><rect height="22" width="75.2109375" y="112" x="62.15625" class="er attributeBoxOdd"></rect><text style="dominant-baseline: middle; font-size: 10.2px;" transform="translate(67.15625,123)" y="0" x="0" id="text-entity-dboemployees-2d15a155-3b9d-5054-b31a-ff1cfbe1a56d-attr-5-name" class="er entityLabel">job_id</text><rect height="22" width="23.609375" y="112" x="137.3671875" class="er attributeBoxOdd"></rect><text style="dominant-baseline: middle; font-size: 10.2px;" transform="translate(142.3671875,123)" y="0" x="0" id="text-entity-dboemployees-2d15a155-3b9d-5054-b31a-ff1cfbe1a56d-attr-5-comment" class="er entityLabel">FK</text><rect height="22" width="62.15625" y="134" x="0" class="er attributeBoxEven"></rect><text style="dominant-baseline: middle; font-size: 10.2px;" transform="translate(5,145)" y="0" x="0" id="text-entity-dboemployees-2d15a155-3b9d-5054-b31a-ff1cfbe1a56d-attr-6-type" class="er entityLabel">date</text><rect height="22" width="75.2109375" y="134" x="62.15625" class="er attributeBoxEven"></rect><text style="dominant-baseline: middle; font-size: 10.2px;" transform="translate(67.15625,145)" y="0" x="0" id="text-entity-dboemployees-2d15a155-3b9d-5054-b31a-ff1cfbe1a56d-attr-6-name" class="er entityLabel">hire_date</text><rect height="22" width="23.609375" y="134" x="137.3671875" class="er attributeBoxEven"></rect><text style="dominant-baseline: middle; font-size: 10.2px;" transform="translate(142.3671875,145)" y="0" x="0" id="text-entity-dboemployees-2d15a155-3b9d-5054-b31a-ff1cfbe1a56d-attr-6-comment" class="er entityLabel"></text><rect height="22" width="62.15625" y="156" x="0" class="er attributeBoxOdd"></rect><text style="dominant-baseline: middle; font-size: 10.2px;" transform="translate(5,167)" y="0" x="0" id="text-entity-dboemployees-2d15a155-3b9d-5054-b31a-ff1cfbe1a56d-attr-7-type" class="er entityLabel">int</text><rect height="22" width="75.2109375" y="156" x="62.15625" class="er attributeBoxOdd"></rect><text style="dominant-baseline: middle; font-size: 10.2px;" transform="translate(67.15625,167)" y="0" x="0" id="text-entity-dboemployees-2d15a155-3b9d-5054-b31a-ff1cfbe1a56d-attr-7-name" class="er entityLabel">salary</text><rect height="22" width="23.609375" y="156" x="137.3671875" class="er attributeBoxOdd"></rect><text style="dominant-baseline: middle; font-size: 10.2px;" transform="translate(142.3671875,167)" y="0" x="0" id="text-entity-dboemployees-2d15a155-3b9d-5054-b31a-ff1cfbe1a56d-attr-7-comment" class="er entityLabel"></text></g><rect height="14" width="76.71875" y="234.91798400878906" x="81.76388549804688" class="er relationshipLabelBox"></rect><text style="text-anchor: middle; dominant-baseline: middle; font-size: 12px;" y="241.91798400878906" x="120.12326049804688" id="rel1" class="er relationshipLabel">department_id</text><rect height="14" width="32.25390625" y="240.00157165527344" x="339.00860595703125" class="er relationshipLabelBox"></rect><text style="text-anchor: middle; dominant-baseline: middle; font-size: 12px;" y="247.00157165527344" x="355.13555908203125" id="rel2" class="er relationshipLabel">job_id</text></svg>